/* XPM */
static char *ghostright1694517907[] = {
/* columns rows colors chars-per-pixel */
"32 32 131 2 ",
"   c None",
".  c #FF0042",
"X  c #FF0046",
"o  c #FF0049",
"O  c #FF004A",
"+  c #FF004C",
"@  c #FD004E",
"#  c #FD004F",
"$  c #FD0050",
"%  c #FF0051",
"&  c #FF0052",
"*  c #FF0053",
"=  c #FF0055",
"-  c #F7005D",
";  c #FF005F",
":  c #FF135C",
">  c #FF195D",
",  c #FF1A5C",
"<  c #FF1C5D",
"1  c #FF0060",
"2  c #FF0061",
"3  c #FF0063",
"4  c #FF0064",
"5  c #FE0065",
"6  c #FF0065",
"7  c #FF0265",
"8  c #FE0066",
"9  c #FF0066",
"0  c #FF0166",
"q  c #FF0067",
"w  c #FF0366",
"e  c #FF0466",
"r  c #FE0467",
"t  c #FF0467",
"y  c #FF0867",
"u  c #FF0B67",
"i  c #FF0E67",
"p  c #FF0068",
"a  c #FF006C",
"s  c #FF006D",
"d  c #FF006E",
"f  c #FF006F",
"g  c #FF0E68",
"h  c #FF1067",
"j  c #FF1068",
"k  c #FF106A",
"l  c #FF1668",
"z  c #FF1769",
"x  c #FF0070",
"c  c #FF0077",
"v  c #FF1071",
"b  c #FF2269",
"n  c #FF226A",
"m  c #FF226B",
"M  c #FF236B",
"N  c #FF246B",
"B  c #FF246C",
"V  c #FF256C",
"C  c #FB2671",
"Z  c #FB2771",
"A  c #FE3270",
"S  c #FF3570",
"D  c #FF3E74",
"F  c #FF3F74",
"G  c #FF4778",
"H  c #FF4878",
"J  c #FE4979",
"K  c #FF4979",
"L  c #FF4A78",
"P  c #FE497A",
"I  c #FF4C7A",
"U  c #0019CF",
"Y  c #001BD0",
"T  c #0053D3",
"R  c #0054D4",
"E  c #0050D8",
"W  c #005BDB",
"Q  c #005BDC",
"!  c #1256D3",
"~  c #3B4BCE",
"^  c #2955D3",
"/  c #285AD4",
"(  c #295AD4",
")  c #006EDC",
"_  c #0052E1",
"`  c #5965D2",
"'  c #5970D6",
"]  c #5271D8",
"[  c #4F73E6",
"{  c #BA36A8",
"}  c #BA3EAA",
"|  c #C13BA5",
" . c #B640AD",
".. c #FF4F83",
"X. c #C14DAA",
"o. c #FFB4C0",
"O. c #FFB7C1",
"+. c #FFB6C2",
"@. c #FFB7C2",
"#. c #FBB8C5",
"$. c #FFB9C5",
"%. c #FFBBC6",
"&. c #FFBDC7",
"*. c #F7B8C8",
"=. c #BAC2EA",
"-. c #FEC1CB",
";. c #FFC2CB",
":. c #FFC2CC",
">. c #FEC3CC",
",. c #C1C6EB",
"<. c #C1C7EC",
"1. c #FFF3F5",
"2. c #FFF4F5",
"3. c #F7F7FB",
"4. c #F7F7FC",
"5. c #FDF7F9",
"6. c #F7F9FD",
"7. c #F7FFFF",
"8. c #FFF9FA",
"9. c #FFFBFA",
"0. c #FBFAFC",
"q. c #FBFBFD",
"w. c #FBFBFE",
"e. c #FDFBFC",
"r. c #FDFCFD",
"t. c #FFFDFC",
"y. c #FFFDFD",
"u. c #FFFEFE",
"i. c #FFFEFF",
"p. c #FEFFFF",
"a. c white",
/* pixels */
"                                                                ",
"                                                                ",
"                          9 9 9 9 9 9 9                         ",
"                        9 x 9 p p p 9 f 9                       ",
"                  9 9 9 9 9 9 9 9 9 9 9 9 9 9                   ",
"                9 f y k i h y 9 9 9 9 9 9 y v l                 ",
"              9 9 e 3 ; 3 ; 3 e 9 9 9 9 e 3 ; 3 3               ",
"            9 f i 9 S I H I S 9 y 9 9 i 9 S I K ..H             ",
"          9 9 e l . o.u.1.u.@.. l e 9 h . @.u.2.u.%..           ",
"          f e 9 G 3 ;.u.u.u.;.9 F 9 9 G 9 >.u.u.u.;.f           ",
"          f M O @.u.8.u.u.u.9.u.@.& & @.u.8.u.u.u.u.u.          ",
"          f B O &.u.u.u.0.4.6.7.#.& & &.u.u.u.u.6.6.u.          ",
"          f N O %.u.0.u.<.R ' ) X.: @ %.u.u.u.=.R ] [           ",
"        9 f B O &.u.u.u.=.Y ^ E { < @ %.u.0.u.=.Y ! _ ~         ",
"      9 9 9 N O &.u.u.u.=.U ( W } , @ &.u.u.u.=.U ( W  .=       ",
"      x 9 9 n O @.u.5.u.,.R ` T | , & @.u.8.u.,.R ` T | 3       ",
"      p 9 9 e 9 F e ;.u.0.7.*.- C 9 3 G e ;.u.0.7.*.- Z f       ",
"      f 9 9 9 e l . @.u.2.u.O.X n 9 7 h . o.u.2.u.@.X n f       ",
"      f 9 9 9 9 y 9 S I G K A 9 e 9 9 i 9 S I G K A 3 e f       ",
"      f 9 9 9 9 9 e 3 ; 3 ; 3 e 9 9 9 9 e 3 ; 3 3 3 e 9 f       ",
"      f 9 9 9 9 9 9 y h i k y 9 9 9 9 9 9 y k i h y 9 9 p       ",
"      f 9 9 9 9 9 9 9 9 9 9 9 9 9 9 9 9 9 9 9 9 9 9 9 9 f       ",
"      f 9 9 9 9 9 9 9 9 9 9 9 9 3 9 9 9 9 9 9 9 9 9 9 9 f       ",
"      f 9 9 9 p 9 9 9 9 9 9 9 p 9 p 9 9 9 9 9 9 9 9 9 9 f       ",
"      f 9 9 9 9 9 9 9 9 9 9 9 9 9 9 9 9 9 9 9 9 9 9 9 9 f       ",
"      f 3 f 9   9 f 9 9 9 f 9       9 f 9 9 x 9   9 f 9 f       ",
"      f 9 9       9 9 9 3 f           f 9 9 9       9 9 f       ",
"      c 9           9 f 9 f           f f 9           9 c       ",
"      f               9 9 9           9 9               p       ",
"                                                                ",
"                                                                ",
"                                                                "
};
