/* XPM */
static char *ghostleft1694517907[] = {
/* columns rows colors chars-per-pixel */
"32 32 252 2 ",
"   c None",
".  c #F1A902",
"X  c #FBAB00",
"o  c #F9AD00",
"O  c #FBAC00",
"+  c #F9AE00",
"@  c #FAAE00",
"#  c #FBAE00",
"$  c #FBAF00",
"%  c #FBB000",
"&  c #FFB300",
"*  c #EFAA2F",
"=  c #FBB124",
"-  c #FEB427",
";  c #F9B12F",
":  c #FFB92B",
">  c #F3AD37",
",  c #F9B130",
"<  c #FFB632",
"1  c #F8B234",
"2  c #FAB335",
"3  c #FBB336",
"4  c #FBB337",
"5  c #FBB436",
"6  c #FBB437",
"7  c #F9B23A",
"8  c #FBB439",
"9  c #FCB438",
"0  c #FCB439",
"q  c #FCB43B",
"w  c #FBB53F",
"e  c #FCB53E",
"r  c #FFCA3F",
"t  c #E3A442",
"y  c #E2A542",
"u  c #E4A441",
"i  c #E4A541",
"p  c #EDAB46",
"a  c #EEAD45",
"s  c #EEAC46",
"d  c #F0AE45",
"f  c #F1AF45",
"g  c #F0AD46",
"h  c #F0AE46",
"j  c #F0AF46",
"k  c #F1AF46",
"l  c #F2AE48",
"z  c #F3B045",
"x  c #F2B046",
"c  c #F3B047",
"v  c #F3B147",
"b  c #F3B246",
"n  c #F4B047",
"m  c #F4B147",
"M  c #F6B347",
"N  c #FBB540",
"B  c #F9B447",
"V  c #FBB646",
"C  c #FBB647",
"Z  c #FCB645",
"A  c #FCB646",
"S  c #FCB647",
"D  c #FFB946",
"F  c #F3B148",
"G  c #F5B148",
"H  c #F6B348",
"J  c #F7B449",
"K  c #F7B44E",
"L  c #F8B349",
"P  c #F8B448",
"I  c #F9B548",
"U  c #F8B449",
"Y  c #F9B549",
"T  c #FBB648",
"R  c #FBB649",
"E  c #FBB749",
"W  c #FBB64A",
"Q  c #FBB74A",
"!  c #FBB74B",
"~  c #FCB648",
"^  c #FCB649",
"/  c #FCB749",
"(  c #FCB64A",
")  c #FCB74A",
"_  c #FDB74A",
"`  c #FCB74B",
"'  c #F9B54C",
"]  c #FBB74C",
"[  c #FBB74D",
"{  c #F9B54E",
"}  c #F9B64E",
"|  c #FBB74E",
" . c #FCB74C",
".. c #FCB74D",
"X. c #FCB74E",
"o. c #FCB849",
"O. c #FCB84A",
"+. c #FDB84A",
"@. c #FEB84A",
"#. c #FFB94A",
"$. c #FEB94B",
"%. c #FFB94B",
"&. c #FFBA4B",
"*. c #FFBB4B",
"=. c #FFBC4B",
"-. c #FBB84F",
";. c #FFBB4C",
":. c #FFBB4D",
">. c #FCB84E",
",. c #FDB94E",
"<. c #FFBA4E",
"1. c #FFBC4C",
"2. c #FFBD4C",
"3. c #FFBE4C",
"4. c #FFBE4D",
"5. c #FFBF4D",
"6. c #FFBE4F",
"7. c #F3B151",
"8. c #F3B253",
"9. c #F4B252",
"0. c #FBB750",
"q. c #FBB853",
"w. c #FEBA50",
"e. c #FFBB51",
"r. c #FCB853",
"t. c #FFBB52",
"y. c #FBB955",
"u. c #F7B65A",
"i. c #FBBA59",
"p. c #FBBA5A",
"a. c #FCBA58",
"s. c #FCBB5A",
"d. c #FBBB5D",
"f. c #FCBD63",
"g. c #FCBD67",
"h. c #F5BA6A",
"j. c #FCBE6B",
"k. c #FBBF6D",
"l. c #FBBF6F",
"z. c #FCBF6D",
"x. c #FCBF6E",
"c. c #FFC04D",
"v. c #FFC14E",
"b. c #FFC24E",
"n. c #FFC34E",
"m. c #FFC34F",
"M. c #FFC44F",
"N. c #FFC550",
"B. c #FFC750",
"V. c #FFC452",
"C. c #FFC653",
"Z. c #FFC851",
"A. c #FFC852",
"S. c #FFCC52",
"D. c #FFCD53",
"F. c #FFCE53",
"G. c #FFCD55",
"H. c #FFCF54",
"J. c #FFD054",
"K. c #FFD455",
"L. c #FFD456",
"P. c #FCC070",
"I. c #FCC47D",
"U. c #FFC77F",
"Y. c #FFD578",
"T. c #000D9D",
"R. c #002F9E",
"E. c #002EA0",
"W. c #0039A2",
"Q. c #0042A7",
"!. c #1A4EA7",
"~. c #005EB8",
"^. c #1F5DB2",
"/. c #2153B2",
"(. c #51579D",
"). c #4665AF",
"_. c #4F64AB",
"`. c #4A66AD",
"'. c #5F6BAA",
"]. c #5E6DAC",
"[. c #5770B2",
"{. c #616CA9",
"}. c #7D75A0",
"|. c #7885B9",
" X c #AF8C8C",
".X c #CC9E84",
"XX c #FCC683",
"oX c #FCC785",
"OX c #FAC78A",
"+X c #FCCA8F",
"@X c #F0C391",
"#X c #F3C697",
"$X c #FCCB92",
"%X c #FCCF9C",
"&X c #FFDDA1",
"*X c #FCD5AB",
"=X c #FBDAB9",
"-X c #FDDDBD",
";X c #B0B6CC",
":X c #BFBDCE",
">X c #B0B7D4",
",X c #B1B8D3",
"<X c #B4BBD5",
"1X c #B4BBD6",
"2X c #B5BFDA",
"3X c #BDC1D7",
"4X c #BEC4DB",
"5X c #FDDFC1",
"6X c #FFE2C1",
"7X c #FDE0C3",
"8X c #FDE0C4",
"9X c #FDE2C7",
"0X c #F5E8DF",
"qX c #FDEADA",
"wX c #FFEDDC",
"eX c #FEEDDD",
"rX c #FDEEDF",
"tX c #FEEEDF",
"yX c #C7CDE8",
"uX c #DADEEA",
"iX c #FFF1E1",
"pX c #FFF2E3",
"aX c #FCF2E8",
"sX c #FEF4EC",
"dX c #FEF5EC",
"fX c #FEF6EF",
"gX c #EFF1F6",
"hX c #F2F1F4",
"jX c #F0F1F6",
"kX c #FCF9F7",
"lX c #F7F8FA",
"zX c #F5FCFF",
"xX c #F7FEFF",
"cX c #FEFBF8",
"vX c #FEFBF9",
"bX c #FCFBFA",
"nX c #FFFFFB",
"mX c #FAFEFF",
"MX c #FEFDFC",
"NX c #FEFDFD",
"BX c #FFFFFC",
"VX c #FEFEFD",
"CX c #FCFDFE",
"ZX c #FCFEFF",
"AX c #FDFEFF",
"SX c #FCFFFF",
"DX c #FDFFFF",
"FX c #FEFEFE",
"GX c #FFFEFE",
"HX c #FFFFFE",
"JX c #FEFFFF",
"KX c white",
/* pixels */
"                                                                ",
"                                                                ",
"                                                                ",
"                                                                ",
"                        s L.1.m.m.1.J.c                         ",
"                  k H H J 1.T O.O.O.O.T c L m                   ",
"                  T G.m.1./ >.T O./ ] 1.C.Z.3.                  ",
"              * 3 3 e / / >.T ! ] V q q q Z O.V m               ",
"              h.Y.l.g.-.] T ! T ] y.z.l.l.i.] C.L               ",
"          . & qXKXKXeX# 5 ] T -.X XXKXkXKX$XX ] ! 1.k           ",
"          @X&XaXKXKXdX%XI.w / y.OX=XmXKXKX5X$Xi.A C.k           ",
"          KXKXKXKXKXKXKX9X% T f.KXKXKXKXKXKXcXl.5 C.k           ",
"          ;XyX<X4XlXKXKX7X# >.u.:X2X,XuXKXKXcXl.9 C.F           ",
"          R./.E.).gXKXmX7X# w.8.(.Q.T.,XKXKXcXl.8 C.k           ",
"        :  X~.!.[.gXKXmX9X+ w.8.{.^.W.<XKXmXKXz.9 >.T H         ",
"        r .X`.'.|.hXnXbX-X+ w.8.}.]._.3XKXcXdXj.e / O.D.        ",
"        >.K l 0XxXKXsXd.i.T / 0.> #XxXmXKX*X] r.T  ./ 1.        ",
"        >.D < 7XiXtX5X- N / / 0.- I.iXeXeXoX# ] -.T / m.        ",
"        3./ ] 7 , 8 w 0.] T L / ] B ; 3 0  .w.! T ! O.m.        ",
"        O./ / / V V / L ] T ] T T / A A / T T T T ! O.m.        ",
"        O.O.O. .] 0.] T ] T T T T ] q.] >.] T -.T T / m.        ",
"        3.O./ / T T T ] T T  ./ / T T T O.T / / >.T / m.        ",
"        1.O.T ! T / T T T T T T T T T T T T T T T O.O.m.        ",
"        O.>.T 1.m. .T ] T / m.M.V.1.! ! ! O.>.m.V.T / m.        ",
"        1.O.O.m k / T T / O.c k k m O./ T T T c k / O.m.        ",
"        O.1.D.    O.C.T O.O.        3.O.T m.m.    D.>.1.        ",
"        m.c t     t s / O.1.        1.O.>.k u     u F Z.        ",
"        J.s           m.3.m.        m./ C.            L.        ",
"                                                                ",
"                                                                ",
"                                                                ",
"                                                                "
};
